<svg data-name="Group 23130" xmlns="http://www.w3.org/2000/svg" width="23.473" height="27.241" viewBox="0 0 23.473 27.241">
    <g data-name="Group 809">
        <path data-name="Path 845" d="M196.238 234.774v5.183l-7.259 4.191v6.152l-4.489 4.627v-13.37z" transform="translate(-184.489 -234.747)" style="fill:#013eb7"/>
        <path data-name="Path 846" d="m202.527 334.091-.171.111-7.74.423-7.477 3.35c1.184-.661 2.736-1.5 4.1-2.227 1.711-.914 3.121-1.657 3.121-1.657z" transform="translate(-186.707 -317.889)" style="fill:#013eb7"/>
        <path data-name="Path 847" d="m200.137 334.774-1.175.754-2.725 1.751-2.63 1.691-1.148.739 3.778 5.944v.022l-11.1-6.407-.652-.376v-.1l.432-.243 7.477-3.35z" transform="translate(-184.489 -318.461)" style="fill:#013eb7"/>
        <path data-name="Path 849" d="m245.628 275.923-.011.016-4.349 2.828-2.8 1.82H229.5l.207-.127 8.6-.514 7.308-4.029z" transform="translate(-222.167 -269.189)" style="fill:#013eb7"/>
        <path data-name="Path 850" d="m246.678 241.337-7.308 4.029-8.6.514 1.528-.937 2.683-1.646 2.965-1.817 1.106-.679-4.055-6.173.031-.018 10.987 6.342z" transform="translate(-223.23 -234.61)" style="fill:#013eb7"/>
        <path data-name="Path 851" d="m260.7 240.893-1.106.679-2.919-1.686-.047.027v-5.183l.016-.009z" transform="translate(-244.876 -234.701)" style="fill:#013eb7"/>
        <path data-name="Path 852" d="M189.018 332.386c-1.362.73-2.914 1.566-4.1 2.227l-.432.242v-.155l4.489-4.627v2.289z" transform="translate(-184.489 -314.527)" style="fill:#013eb7"/>
    </g>
    <path data-name="Path 853" d="M268.469 276.055v13.621l-11.8 6.81-.024-.013-.022-.036v-5.163l.047.027 7.306-4.218v-5.161l4.35-5.922.018-.011z" transform="translate(-244.996 -269.246)" style="fill:#013eb7"/>
</svg>
