<svg xmlns="http://www.w3.org/2000/svg" width="29.999" height="29.981" viewBox="0 0 29.999 29.981">
    <defs>
        <clipPath id="csjc41thva">
            <path data-name="Rectangle 20271" style="fill:#0143c1" d="M0 0h29.999v29.981H0z"/>
        </clipPath>
    </defs>
    <g data-name="Group 23081">
        <g data-name="Group 23083" style="clip-path:url(#csjc41thva)">
            <path data-name="Path 59587" d="M27.9 7.677H6.73a4.462 4.462 0 0 0-4.551 3.858 16.715 16.715 0 0 0-.018 2.415h.33c1.383 0 2.767-.006 4.149 0a3.828 3.828 0 0 1 .936 7.54 4.592 4.592 0 0 1-1.067.115c-1.329.013-2.657.005-3.986.005h-.397c-.009 1.4-.175 2.788.605 4.046A4.447 4.447 0 0 0 5.6 27.76a5.64 5.64 0 0 0 1.23.121q5.391.013 10.782.005a1.082 1.082 0 0 1 1.205.864 1.033 1.033 0 0 1-.9 1.216 2.5 2.5 0 0 1-.261.01c-3.659 0-7.319.013-10.978 0a6.566 6.566 0 0 1-6.533-5.352 6.453 6.453 0 0 1-.117-1.232Q0 19.261 0 15.128c0-.947.016-1.894.021-2.841A6.548 6.548 0 0 1 5.532 5.7a18.474 18.474 0 0 1 2.54-.108h.346c.15-.482.266-.957.442-1.407A6.518 6.518 0 0 1 14.821.028a347.46 347.46 0 0 1 8.723 0 6.549 6.549 0 0 1 6.429 6.266c.04.847.014 1.7.014 2.546v8.852a1.033 1.033 0 0 1-1.3 1.1.98.98 0 0 1-.753-.776 2.309 2.309 0 0 1-.039-.486V7.677M10.608 5.569h17.144a1.511 1.511 0 0 0-.025-.176 4.455 4.455 0 0 0-4.112-3.269c-2.919-.034-5.838-.017-8.757-.009a4.226 4.226 0 0 0-2.653.959 4.393 4.393 0 0 0-1.6 2.495M2.137 19.5c.085.007.138.016.192.016h4.308a1.774 1.774 0 0 0 .419-.047 1.738 1.738 0 0 0-.392-3.426c-1.447-.012-2.894 0-4.341 0a1.272 1.272 0 0 0-.186.027z" style="fill:#0143c1"/>
            <path data-name="Path 59588" d="M57.825 57.8v1.67c0 .479.006.958 0 1.437a1.042 1.042 0 1 1-2.084.016c-.016-.892 0-1.785 0-2.678v-.428c-.135-.006-.249-.016-.363-.016-.936 0-1.873.006-2.809-.008a1.008 1.008 0 0 1-.989-.873 1.021 1.021 0 0 1 .643-1.124 1.68 1.68 0 0 1 .543-.083c.86-.008 1.72 0 2.58 0h.395v-.377c0-.9-.008-1.807 0-2.711a1.038 1.038 0 0 1 .9-1.076 1.013 1.013 0 0 1 1.114.659 1.683 1.683 0 0 1 .073.544c.006.967 0 1.934 0 2.939.134.008.248.021.362.021h2.743a1.008 1.008 0 0 1 1.01.688.9.9 0 0 1-.237 1.074 1.505 1.505 0 0 1-.819.311c-.88.039-1.763.014-2.645.014h-.415" transform="translate(-32.02 -32.002)" style="fill:#0143c1"/>
        </g>
    </g>
</svg>
