<svg xmlns="http://www.w3.org/2000/svg" width="277.008" height="158.818" viewBox="0 0 277.008 158.818">
    <g data-name="Group 23195" transform="translate(-109.044 -130.284)">
        <circle data-name="Ellipse 1688" cx="3.579" cy="3.579" r="3.579" transform="translate(341.217 234.505)" style="fill:#013eb7"/>
        <path data-name="Line 9" transform="translate(373.015 236.294)" style="stroke-width:2px;stroke:#0d2233;stroke-miterlimit:10;fill:#3f3d56" d="M0 40.755V0"/>
        <circle data-name="Ellipse 1689" cx="5.763" cy="5.763" r="5.763" transform="translate(367.251 230.531)" style="fill:#0d2233"/>
        <path data-name="Path 59713" d="M972.329 629.15c-8.325 12.766-6.044 29-6.044 29s15.778-4.461 24.1-17.228 6.044-29 6.044-29-15.776 4.462-24.1 17.228z" transform="translate(-610.665 -370.037)" style="fill:#0d2233"/>
        <path data-name="Path 59714" d="M886.564 666.2s-.2-.032-.576-.108c-.3-.06-.707-.147-1.207-.265-4.471-1.054-16.359-4.618-24.131-13.988-9.728-11.733-9.318-28.124-9.318-28.124s14.874 2.417 24.675 12.953q.637.679 1.24 1.408c8.464 10.208 9.253 23.944 9.316 27.34.008.506.001.784.001.784z" transform="translate(-530.989 -378.23)" style="fill:#013eb7"/>
        <path data-name="Path 59715" d="M891.6 629.15c8.325 12.766 6.044 29 6.044 29s-15.778-4.461-24.1-17.228-6.044-29-6.044-29 15.775 4.462 24.1 17.228z" transform="translate(-542.024 -370.037)" style="stroke-width:1.5px;fill:none;stroke:#0d2233;stroke-miterlimit:10"/>
        <path data-name="Path 59716" d="M942.341 694.906c-.22.265-.414.492-.573.677a34 34 0 0 1-.554.614s-.244-.306-.653-.88c-2.249-3.135-9.482-14.281-8.923-27.156q.045-1.012.149-2 .637.679 1.24 1.408c8.462 10.206 9.251 23.941 9.314 27.337z" transform="translate(-586.768 -407.722)" style="opacity:.1"/>
        <path data-name="Path 59717" d="M958.118 611.938c-.658 15.227-11.961 27.1-11.961 27.1s-10.236-12.809-9.578-28.036 11.961-27.1 11.961-27.1 10.237 12.809 9.578 28.036z" transform="translate(-590.201 -350.568)" style="fill:#013eb7"/>
        <path data-name="Line 10" transform="translate(355.956 233.373)" style="stroke-width:1.5px;fill:none;stroke:#0d2233;stroke-miterlimit:10" d="M0 54.67 2.498 0"/>
        <path data-name="Line 11" transform="translate(118.774 288.103)" style="fill:none;stroke-width:2px;stroke:#0d2233;stroke-miterlimit:10" d="M0 0h258.176"/>
        <circle data-name="Ellipse 1690" cx="13.04" cy="13.04" r="13.04" transform="translate(160.567 196.061)" style="fill:#013eb7"/>
        <circle data-name="Ellipse 1691" cx="13.04" cy="13.04" r="13.04" transform="translate(138.403 226.749)" style="fill:#013eb7"/>
        <circle data-name="Ellipse 1692" cx="13.04" cy="13.04" r="13.04" transform="translate(111.124 251.258)" style="fill:#013eb7"/>
        <path data-name="Line 12" transform="translate(124.153 264.226)" style="stroke-width:1.5px;stroke:#0d2233;stroke-miterlimit:10;fill:#3f3d56" d="M0 23.653V0"/>
        <circle data-name="Ellipse 1693" cx="3.345" cy="3.345" r="3.345" transform="translate(120.808 260.881)" style="fill:#0d2233"/>
        <path data-name="Path 59718" d="M185.045 712s-.478-10.277-10.274-9.083" transform="translate(-60.892 -433.198)" style="fill:#0d2233"/>
        <circle data-name="Ellipse 1694" cx="3.345" cy="3.345" r="3.345" transform="translate(170.27 205.766)" style="fill:#0d2233"/>
        <g data-name="Group 23191">
            <path data-name="Line 13" transform="translate(173.614 209.148)" style="stroke-width:1.5px;stroke:#0d2233;stroke-miterlimit:10;fill:#3f3d56" d="M0 78.897V0"/>
            <path data-name="Path 59721" d="M347.13 712.511s2.15-19.977-10.274-20.932" transform="translate(-173.515 -425.386)" style="stroke-width:1.5px;fill:none;stroke:#0d2233;stroke-miterlimit:10"/>
            <path data-name="Path 59722" d="M370.2 712.511s-2.15-19.977 10.274-20.932" transform="translate(-196.587 -425.386)" style="stroke-width:1.5px;fill:none;stroke:#0d2233;stroke-miterlimit:10"/>
            <path data-name="Path 59723" d="M370.87 608.627s-2.15-18.911 10.274-19.867" transform="translate(-197.051 -353.944)" style="stroke-width:1.5px;fill:none;stroke:#0d2233;stroke-miterlimit:10"/>
        </g>
        <g data-name="Group 23192">
            <path data-name="Line 14" transform="translate(151.455 239.775)" style="stroke-width:1.5px;stroke:#0d2233;stroke-miterlimit:10;fill:#3f3d56" d="M0 48.159V0"/>
            <path data-name="Path 59725" d="M274.512 712.632s2.15-19.764-10.274-20.719" transform="translate(-123.057 -425.617)" style="stroke-width:1.5px;fill:none;stroke:#0d2233;stroke-miterlimit:10"/>
        </g>
        <g data-name="Group 23194" transform="translate(137.836 236.43)">
            <circle data-name="Ellipse 1698" cx="3.345" cy="3.345" r="3.345" transform="translate(10.274)" style="fill:#0d2233"/>
            <path data-name="Path 59724" d="M274.512 628.746s-.478-10.278-10.274-9.083" transform="translate(-260.893 -611.779)" style="fill:#0d2233"/>
            <circle data-name="Ellipse 1699" cx="3.345" cy="3.345" r="3.345" transform="translate(0 26.52)" style="fill:#0d2233"/>
        </g>
        <path data-name="Path 59726" d="M650.617 634.767c-7.007 3.186-16.03 2.96-16.03 2.96h-9.765v-1.865a60.565 60.565 0 0 1 15.563-1.8 71.3 71.3 0 0 1 10.232.705z" transform="translate(-373.602 -385.423)" style="opacity:.1"/>
        <g data-name="Group 23185">
            <g data-name="Group 809">
                <path data-name="Path 845" d="M235.944 234.774v22.7l-31.793 18.357v26.921l-19.662 20.268v-58.538z" transform="translate(22.534 -65.964)" style="fill:#013eb7"/>
                <path data-name="Path 846" d="m254.534 334.091-.75.487-33.9 1.851-32.745 14.671c5.184-2.894 11.984-6.557 17.948-9.753 7.493-4 13.67-7.259 13.67-7.259z" transform="translate(21.774 -94.437)" style="fill:#013eb7"/>
                <path data-name="Path 847" d="m253.024 334.774-5.145 3.3-11.935 7.667-11.517 7.406-5.027 3.235 16.545 26.034v.1l-48.6-28.061-2.855-1.647v-.448c.6-.341 1.228-.691 1.89-1.062l32.748-14.673z" transform="translate(22.534 -94.633)" style="fill:#013eb7"/>
                <path data-name="Path 849" d="m300.146 275.945-.049.068-19.048 12.387-12.267 7.97H229.5l.906-.555 37.678-2.251 32.007-17.645z" transform="translate(9.631 -77.759)" style="fill:#013eb7"/>
                <path data-name="Path 850" d="m300.452 264.074-32.007 17.645-37.678 2.251 6.694-4.1 11.751-7.21 12.988-7.96 4.842-2.972-17.762-27.04.136-.078 48.123 27.779z" transform="translate(9.267 -65.917)" style="fill:#013eb7"/>
                <path data-name="Path 851" d="m274.455 261.757-4.843 2.972-12.783-7.385-.2.117v-22.7l.068-.039z" transform="translate(1.854 -65.948)" style="fill:#013eb7"/>
                <path data-name="Path 852" d="M204.327 340.2c-5.963 3.2-12.764 6.859-17.948 9.753-.662.37-1.286.722-1.89 1.062v-.672l19.663-20.267V340.1z" transform="translate(22.534 -93.285)" style="fill:#013eb7"/>
            </g>
            <path data-name="Path 853" d="M308.5 276.3v59.659l-51.671 29.821-.107-.059-.1-.156v-22.614l.2.117 32-18.473v-22.606l19.048-25.956.078-.049z" transform="translate(1.329 -77.778)" style="fill:#013eb7"/>
        </g>
        <g data-name="Group 23188" transform="translate(272.456 130.284)" style="opacity:.7">
            <circle data-name="Ellipse 1687" cx="11.859" cy="11.859" r="11.859" style="fill:#fff"/>
            <g data-name="Group 23186">
                <g data-name="Group 809">
                    <path data-name="Path 845" d="M190.277 234.774v2.553l-3.576 2.065v3.028l-2.211 2.279v-6.584z" transform="translate(-178.526 -229.612)" style="fill:#013eb7"/>
                    <path data-name="Path 846" d="m194.719 334.091-.084.055-3.812.208-3.684 1.646c.583-.325 1.348-.737 2.019-1.1.843-.45 1.537-.816 1.537-.816z" transform="translate(-180.963 -320.961)" style="fill:#013eb7"/>
                    <path data-name="Path 847" d="m192.2 334.774-.579.371-1.342.862-1.3.833-.565.364 1.861 2.928v.011l-5.466-3.156-.321-.185v-.05l.213-.119 3.683-1.65z" transform="translate(-178.526 -321.589)" style="fill:#013eb7"/>
                    <path data-name="Path 849" d="m237.443 275.919-.005.008-2.138 1.393-1.38.9h-4.42l.1-.062 4.238-.253 3.6-1.985z" transform="translate(-219.923 -267.453)" style="fill:#013eb7"/>
                    <path data-name="Path 850" d="m238.6 237.924-3.6 1.985-4.238.253.753-.461 1.322-.811 1.461-.9.545-.334-2-3.041.015-.009 5.412 3.124z" transform="translate(-221.092 -229.461)" style="fill:#013eb7"/>
                    <path data-name="Path 851" d="m258.63 237.76-.545.334-1.438-.831-.023.013v-2.553h.008z" transform="translate(-244.874 -229.561)" style="fill:#013eb7"/>
                    <path data-name="Path 852" d="M186.72 331.214c-.671.359-1.436.771-2.019 1.1l-.213.119v-.076l2.211-2.279v1.122z" transform="translate(-178.526 -317.267)" style="fill:#013eb7"/>
                </g>
                <path data-name="Path 853" d="M262.459 276.019v6.71l-5.811 3.354-.012-.007-.011-.017v-2.543l.023.013 3.6-2.078v-2.542l2.142-2.919.009-.005z" transform="translate(-244.933 -267.516)" style="fill:#013eb7"/>
            </g>
        </g>
        <g data-name="Group 23189" transform="translate(334.295 210.346)" style="opacity:.7">
            <circle data-name="Ellipse 1687" cx="6.921" cy="6.921" r="6.921" style="fill:#fff"/>
            <g data-name="Group 23186">
                <g data-name="Group 809">
                    <path data-name="Path 845" d="M187.518 234.774v1.336l-1.871 1.081v1.585l-1.157 1.193v-3.446z" transform="translate(-180.687 -231.357)" style="fill:#013eb7"/>
                    <path data-name="Path 846" d="m191.106 334.091-.044.029-2 .109-1.927.864c.305-.17.705-.386 1.056-.574l.8-.427z" transform="translate(-183.226 -326.504)" style="fill:#013eb7"/>
                    <path data-name="Path 847" d="m188.523 334.774-.3.194-.7.451-.678.436-.3.19.974 1.532v.006l-2.861-1.652-.168-.1v-.026l.111-.062 1.927-.864z" transform="translate(-180.687 -327.159)" style="fill:#013eb7"/>
                    <path data-name="Path 849" d="m233.655 275.918-1.121.729-.722.469H229.5l.053-.033 2.218-.132 1.884-1.039z" transform="translate(-223.805 -270.772)" style="fill:#013eb7"/>
                    <path data-name="Path 850" d="m234.869 236.344-1.884 1.039-2.218.132.394-.241.692-.424.764-.469.285-.175-1.045-1.591h.008l2.832 1.635z" transform="translate(-225.022 -231.2)" style="fill:#013eb7"/>
                    <path data-name="Path 851" d="m257.674 236.311-.285.175-.752-.435-.012.007v-1.336z" transform="translate(-249.794 -231.305)" style="fill:#013eb7"/>
                    <path data-name="Path 852" d="M185.657 330.671c-.351.188-.751.4-1.056.574l-.111.063v-.04l1.157-1.193v.59z" transform="translate(-180.687 -322.657)" style="fill:#013eb7"/>
                </g>
                <path data-name="Path 853" d="M259.678 276v3.512l-3.041 1.755h-.006l-.006-.009v-1.331l.012.007 1.883-1.087v-1.33l1.121-1.528z" transform="translate(-249.825 -270.837)" style="fill:#013eb7"/>
            </g>
        </g>
        <g data-name="Group 23190" transform="translate(109.044 210.346)" style="opacity:.7">
            <circle data-name="Ellipse 1687" cx="6.921" cy="6.921" r="6.921" style="fill:#fff"/>
            <g data-name="Group 23186">
                <g data-name="Group 809">
                    <path data-name="Path 845" d="M187.518 234.774v1.336l-1.871 1.081v1.585l-1.157 1.193v-3.446z" transform="translate(-180.687 -231.357)" style="fill:#013eb7"/>
                    <path data-name="Path 846" d="m191.106 334.091-.044.029-2 .109-1.927.864c.305-.17.705-.386 1.056-.574l.8-.427z" transform="translate(-183.226 -326.504)" style="fill:#013eb7"/>
                    <path data-name="Path 847" d="m188.523 334.774-.3.194-.7.451-.678.436-.3.19.974 1.532v.006l-2.861-1.652-.168-.1v-.026l.111-.062 1.927-.864z" transform="translate(-180.687 -327.159)" style="fill:#013eb7"/>
                    <path data-name="Path 849" d="m233.655 275.918-1.121.729-.722.469H229.5l.053-.033 2.218-.132 1.884-1.039z" transform="translate(-223.805 -270.772)" style="fill:#013eb7"/>
                    <path data-name="Path 850" d="m234.869 236.344-1.884 1.039-2.218.132.394-.241.692-.424.764-.469.285-.175-1.045-1.591h.008l2.832 1.635z" transform="translate(-225.022 -231.2)" style="fill:#013eb7"/>
                    <path data-name="Path 851" d="m257.674 236.311-.285.175-.752-.435-.012.007v-1.336z" transform="translate(-249.794 -231.305)" style="fill:#013eb7"/>
                    <path data-name="Path 852" d="M185.657 330.671c-.351.188-.751.4-1.056.574l-.111.063v-.04l1.157-1.193v.59z" transform="translate(-180.687 -322.657)" style="fill:#013eb7"/>
                </g>
                <path data-name="Path 853" d="M259.678 276v3.512l-3.041 1.755h-.006l-.006-.009v-1.331l.012.007 1.883-1.087v-1.33l1.121-1.528z" transform="translate(-249.825 -270.837)" style="fill:#013eb7"/>
            </g>
        </g>
        <g data-name="Group 23193" transform="translate(159.995 217.018)">
            <circle data-name="Ellipse 1695" cx="3.345" cy="3.345" r="3.345" transform="translate(0 45.831)" style="fill:#0d2233"/>
            <path data-name="Path 59719" d="M347.13 539.614s-.478-10.277-10.274-9.083" transform="translate(-333.511 -530.435)" style="fill:#0d2233"/>
            <path data-name="Path 59720" d="M347.13 635.088s-.478-10.278-10.274-9.083" transform="translate(-333.511 -596.773)" style="fill:#0d2233"/>
            <circle data-name="Ellipse 1696" cx="3.345" cy="3.345" r="3.345" transform="translate(20.549 45.831)" style="fill:#0d2233"/>
            <circle data-name="Ellipse 1697" cx="3.345" cy="3.345" r="3.345" transform="translate(20.753 14.454)" style="fill:#0d2233"/>
        </g>
    </g>
</svg>
